PathFileType	4	(X/Y/Z)	path1_17_0-570.trc
DataRate	CameraRate	NumFrames	NumMarkers	Units	OrigDataRate	OrigDataStartFrame	OrigNumFrames
30	30	7	22	m	30	498	570
Frame#	Time	Hip			RHip			RKnee			RAnkle			RBigToe			RSmallToe			RHeel			LHip			LKnee			LAnkle			LBigToe			LSmallToe			LHeel			Neck			Head			Nose			RShoulder			RElbow			RWrist			LShoulder			LElbow			LWrist		
		X1	Y1	Z1	X2	Y2	Z2	X3	Y3	Z3	X4	Y4	Z4	X5	Y5	Z5	X6	Y6	Z6	X7	Y7	Z7	X8	Y8	Z8	X9	Y9	Z9	X10	Y10	Z10	X11	Y11	Z11	X12	Y12	Z12	X13	Y13	Z13	X14	Y14	Z14	X15	Y15	Z15	X16	Y16	Z16	X17	Y17	Z17	X18	Y18	Z18	X19	Y19	Z19	X20	Y20	Z20	X21	Y21	Z21	X22	Y22	Z22
499	16.633333333333333	-2.1607049623951924	0.7920651503127312	0.7875267594381846	-2.149483174126458	0.7654538326698137	0.6952841224711837	-2.1060387522370467	0.4206906180641276	0.6783076742438772	-1.8437598032768534	0.1635467123459485	0.6863094963243179	-1.948662408850164	-0.026674791427134064	0.6824736107217299	-1.8927673911500134	-0.0009894442291068202	0.6332084901920944	-1.7741171710443862	0.1317879602708447	0.6958390099935229	-2.173462250066356	0.7583995533692763	0.8704817058230808	-2.2835599400304534	0.4304953767352237	0.8371595034499868	-2.2889443718263722	0.05446555508314053	0.8316061061351924	-2.465065265531808	-0.017057512223534375	0.8687658449902512	-2.42753558500742	-0.0280354351840338	0.908442276083993	-2.2671456150012284	0.005554814086494072	0.8038799478828067	-2.1406629386998395	1.4179619338270337	0.8126197760268619	-2.291864785505116	1.6745437811400004	0.7337939175852672	-2.3527402124307235	1.521372372044564	0.7988289702490943	-2.0979460318016265	1.315664569301378	0.6413187971236094	-2.12052678749575	1.043608525543109	0.5707967584642945	-2.2326175490549613	0.8099062052568737	0.5647185932003461	-2.1065783813637196	1.30713808122289	0.9904761144430252	-2.0666524302353797	1.0416054492247377	1.0162798777417565	-2.080733221231173	0.7941846344298668	1.0314963721172536
500	16.666666666666668	-2.1886594800115997	0.7934811791964314	0.7925472447375402	-2.1790122992855645	0.7686878329854792	0.7010348948247302	-2.1485682947354863	0.42223600185093674	0.6816590215672826	-1.876303025886255	0.17967802333939717	0.684688614665659	-1.9599565228824114	-0.025623024023844115	0.6802992451489376	-1.9118957971858408	0.006699805927995448	0.6303877970920196	-1.8073864008965266	0.15312109430716506	0.6948267843338161	-2.200771161660832	0.76135809488891	0.8744736165089307	-2.299008292948754	0.4276152682697578	0.8393544167792438	-2.2912603712576907	0.05253320490106414	0.829890463544959	-2.466219452088941	-0.02550468785335249	0.8659804872459745	-2.4350981909963223	-0.03736022775777558	0.9041985549179021	-2.2677027056260313	0.00563775300479304	0.8017042195569066	-2.16336409669696	1.4190691580878896	0.8201943593034664	-2.3281951274110013	1.6798823016820266	0.7658589912553958	-2.382809959774303	1.52655752924436	0.8142346077290235	-2.122227231293386	1.3185294377617847	0.6467139067669335	-2.133448261792986	1.0465145129794615	0.57988108978687	-2.234280399779783	0.8064448732522028	0.5684989362598363	-2.1297622555609634	1.3085970758673238	0.9979424655013297	-2.0994427509840956	1.0421895421602587	1.0227062354745453	-2.1173831611762757	0.7933956844988563	1.0360475617129477
501	16.7	-2.2146143022204896	0.7947863065135617	0.7973499383684746	-2.2064548314500536	0.7708476187639784	0.7070039778381516	-2.186057859474694	0.42414160227419606	0.6866954736107623	-1.9122294995563194	0.18934402970633907	0.685408717799999	-1.9856533186754133	-0.022648444147205373	0.676375027695588	-1.9444858955722755	0.015792707072325086	0.6245456581538138	-1.8437343348758013	0.16491036272696155	0.6979163551281123	-2.2258038744265116	0.7629971380909553	0.8783841090457417	-2.310928875685339	0.4235629261287395	0.8420161248487573	-2.292513377083034	0.051275737095358015	0.8290096230613544	-2.4721737152804084	-0.033925398234645715	0.862013540538554	-2.447673590436838	-0.04724275931070533	0.8972753734797625	-2.2673176829222452	0.005515643864960795	0.8011186096438349	-2.1858164442318717	1.4215072319720634	0.8258922485929582	-2.3595374336637103	1.6846387099213869	0.7910546062639661	-2.4092974734340045	1.5307913060875693	0.8235345169749011	-2.144748679427505	1.3222862263093158	0.6513114328207026	-2.146114619255757	1.0502892563820887	0.587059165416208	-2.235176933605378	0.8045960569977432	0.5708334720716576	-2.153258243508832	1.3106942820428202	1.004085308700925	-2.131562517222132	1.042813555131863	1.0289721076695915	-2.1548529514260912	0.7933733273383657	1.040683997409361
502	16.733333333333334	-2.2383191908928985	0.7958895934788347	0.8020100624191723	-2.231701492301611	0.7718209632948341	0.7128354308712127	-2.218184622455816	0.426125546430548	0.6919032868083723	-1.9527336336700234	0.1906551335783612	0.6876578936854194	-2.0277018903349924	-0.01875783362786941	0.6716179993571909	-1.9916247449360034	0.024181393481892195	0.6163220771085579	-1.8840699066996076	0.16469047837437317	0.7037714159864867	-2.2483680449545154	0.763289656794791	0.8822457512748304	-2.3194890549062923	0.4186794347117966	0.8454677464822276	-2.293188853050801	0.0508925575231806	0.8285899326219942	-2.4841058182188807	-0.04302958688623468	0.8559027041410465	-2.465497837395935	-0.058176532096271105	0.8874445441765867	-2.2665260297937437	0.005080805950960748	0.8017999893731748	-2.2076945247944884	1.425011423579466	0.8299985325863072	-2.3856050686921595	1.6882608963402226	0.8072988263669937	-2.4315080980436123	1.5331431927751304	0.8287186946837563	-2.1656393716900895	1.3265795496947335	0.6552509633723032	-2.1586077664484473	1.054482839481807	0.5923381389194822	-2.2360627739011427	0.8046028487513937	0.5718099375218462	-2.1771089669263133	1.3131674268422122	1.008843656963486	-2.162458704292004	1.0433310876583104	1.0346850530478868	-2.192201295518114	0.7943480539237251	1.045228198854664
503	16.766666666666666	-2.2594916484714105	0.7969828427454047	0.8064012249566582	-2.2545335806201248	0.7720224640645296	0.7179676572533652	-2.2454315275073466	0.4280542980115856	0.6961306812766985	-1.9986710765363098	0.18333733493539378	0.6902810029280957	-2.0847638213056157	-0.015341443364228127	0.6674535834631837	-2.0519262090091734	0.029446898482114316	0.6073320171094208	-1.930471276931371	0.15252050659703045	0.7095734614724337	-2.2683451097348857	0.7627527736453741	0.8858354868196953	-2.3250579593372565	0.4133949503609381	0.849945401251945	-2.293639330398154	0.051510187674769836	0.8283340121157144	-2.5015863284877886	-0.05233466892085621	0.8474249475307466	-2.486400396732251	-0.06905545012828017	0.8755310469892014	-2.2657617541343145	0.004185066891933116	0.803580424267448	-2.228581596760982	1.429158294162528	0.8328631083173829	-2.4075346215532005	1.6905598389585643	0.815368726464355	-2.448143410187389	1.532318130787325	0.8309294880112241	-2.1849591559132966	1.3311643891208997	0.6586262240024167	-2.170710233693423	1.0587145898790673	0.5960325143691525	-2.2373488372191996	0.8064965759367678	0.5716204239677278	-2.2008703296238186	1.3157242282968802	1.0123854307768645	-2.1916230556765	1.0435955082729182	1.0393427483858257	-2.2284628232912973	0.796419027712047	1.0493960924572956
504	16.8	-2.2779939575183223	0.7983999754914525	0.8102238885635966	-2.274520906991047	0.7720497571924226	0.7220287812058914	-2.268540044888756	0.43002209618714365	0.699047437644685	-2.0494210726375566	0.1687288083878576	0.6923815101286321	-2.152817890475685	-0.013597705889456161	0.6651638061676075	-2.121330807208668	0.029716933630246956	0.5999551681382481	-1.9838266347922218	0.13061794124164508	0.7128417953248005	-2.285782066594811	0.7621169728399552	0.8888421008678137	-2.3285842124868847	0.4084748157959343	0.8550488081380286	-2.2941999564962643	0.0530134598210847	0.8281531371931584	-2.5217883663935843	-0.060165220972618685	0.8377043809473245	-2.506553272397684	-0.07761327367338157	0.8634449669983519	-2.2653820930673727	0.002656058330566368	0.806567263182824	-2.24812761299825	1.4334032639584595	0.8348494237763476	-2.426877716178094	1.6914664921239213	0.8172884162030478	-2.4579240235508264	1.527217111909461	0.8305811233017735	-2.202584322341824	1.335810701677396	0.6614728922507536	-2.182207612437148	1.0626197279906517	0.5985491154309239	-2.2391743237644843	0.8099709069298916	0.5705039385946281	-2.2239610595852417	1.3181224141025791	1.014941690537427	-2.2184957424289675	1.0433977160126848	1.042304885188578	-2.2628048125453426	0.7994152883791155	1.052838704961013
505	16.833333333333332	-2.294092148554084	0.8003176907544726	0.8132272598234053	-2.2914583256482883	0.77230007446765	0.7251337067702008	-2.288093223061125	0.43206891722606877	0.7008091382439015	-2.102938818792842	0.14938541482221063	0.693533742099784	-2.22584112684242	-0.013940474596972004	0.6654585923771213	-2.193519277192637	0.024164201228711723	0.5969155608960595	-2.0424103805472758	0.1027048502354818	0.7127900886209656	-2.301032199467493	0.7619636604980816	0.8911738115885579	-2.331954914649041	0.4050203858040106	0.8594115904049384	-2.295274199951593	0.05500270318513094	0.8281157984233046	-2.5404077736746795	-0.06461934366616312	0.8290153891624795	-2.522677965094277	-0.08199618294420054	0.8534280105409576	-2.2657745990620004	0.0004727652983146084	0.8106374043059048	-2.266144219400899	1.4372104340892717	0.8362892642997326	-2.4446305706508396	1.6910594456507626	0.8155882460867693	-2.460932408914734	1.5179568087381863	0.8279598201850629	-2.2183449406414524	1.3402091878668487	0.6638131355500101	-2.1930856253329463	1.0658853759427476	0.6002813680618796	-2.2415550151743124	0.8142681611193533	0.5689402422403272	-2.2458423314021867	1.3201976623402027	1.0168065486870652	-2.242530752583526	1.0425146826459561	1.0430197785663542	-2.2945886573381076	0.8029235812905319	1.055261474507417
